<svg height="24" viewBox="0 0 24 24" width="24" xmlns="http://www.w3.org/2000/svg"><path d="m7.5 11c0 .28-.22.5-.5.5s-.5-.22-.5-.5.22-.5.5-.5.5.22.5.5m2 3.5c-.28 0-.5.22-.5.5s.22.5.5.5.5-.22.5-.5-.22-.5-.5-.5m0-6.5c.28 0 .5-.22.5-.5s-.22-.5-.5-.5-.5.22-.5.5.22.5.5.5m5 0c.28 0 .5-.22.5-.5s-.22-.5-.5-.5-.5.22-.5.5.22.5.5.5m-2.5 2.5c-.28 0-.5.22-.5.5s.22.5.5.5.5-.22.5-.5-.22-.5-.5-.5m8 .5c0 4.42-3.58 8-8 8s-8-3.58-8-8c0-2.39 1.06-4.53 2.72-6h10.56c1.66 1.47 2.72 3.61 2.72 6m-7-3.5c0 .83.67 1.5 1.5 1.5s1.5-.67 1.5-1.5-.67-1.5-1.5-1.5-1.5.67-1.5 1.5m-5 0c0 .83.67 1.5 1.5 1.5s1.5-.67 1.5-1.5-.67-1.5-1.5-1.5-1.5.67-1.5 1.5m-1 5.5c1.11 0 2-.89 2-2 0-1.1-.89-2-2-2s-2 .9-2 2c0 1.11.9 2 2 2m4.5 2c0-1.1-.89-2-2-2s-2 .9-2 2c0 1.11.9 2 2 2s2-.89 2-2m.5-2c1.11 0 2-.89 2-2 0-1.1-.89-2-2-2s-2 .9-2 2c0 1.11.9 2 2 2m4.5 2c0-1.1-.89-2-2-2s-2 .9-2 2c0 1.11.9 2 2 2s2-.89 2-2m2.5-4c0-1.1-.89-2-2-2s-2 .9-2 2c0 1.11.9 2 2 2s2-.89 2-2m-2-.5c-.28 0-.5.22-.5.5s.22.5.5.5.5-.22.5-.5-.22-.5-.5-.5m-2.5 4c-.28 0-.5.22-.5.5s.22.5.5.5.5-.22.5-.5-.22-.5-.5-.5z"/></svg>